# xmcd
# 
# Track frame offsets:
#     150
#     27235
#     52570
#     65813
#     86963
#     98150
#     115896
#     130197
#     149956
#     161868
#     177847
#     205747
#     224419
#     238603
#     261896
#     280122
#     293311
# 
# Disc length: 4207
# 
# Revision: 1
# Processed by: cddbd v1.5.2PL0 Copyright (c) Steve Scherf et al.
# Submitted via: fre:ac v1.0.31
# 
DISCID=02106d11
DTITLE=Blues - Stress Relief Disc 1
DYEAR=0
DGENRE=Blues
TTITLE0=Harp Gumbo
TTITLE1=Help Me
TTITLE2=What's The Score
TTITLE3=Better Way To Live
TTITLE4=Little Black Mark
TTITLE5=Learning Curve
TTITLE6=It'll All Work Out
TTITLE7=MacRimon's Lament
TTITLE8=Four Brothers
TTITLE9=Thrill On The Hill
TTITLE10=Saturday Night Fish Fry
TTITLE11=Sweet Tea and Bourbon
TTITLE12=Creepin' Blues
TTITLE13=Nights In White Satin
TTITLE14=Black Night
TTITLE15=Today The Sun Shines
TTITLE16=Teach Me Tonight
EXTD=
EXTT0=
EXTT1=
EXTT2=
EXTT3=
EXTT4=
EXTT5=
EXTT6=
EXTT7=
EXTT8=
EXTT9=
EXTT10=
EXTT11=
EXTT12=
EXTT13=
EXTT14=
EXTT15=
EXTT16=
PLAYORDER=
